<?xml version="1.0" encoding="utf-8" standalone="no"?>
<!DOCTYPE svg PUBLIC "-//W3C//DTD SVG 1.1//EN"
  "http://www.w3.org/Graphics/SVG/1.1/DTD/svg11.dtd">
<svg xmlns:xlink="http://www.w3.org/1999/xlink" width="488.91979pt" height="209.153125pt" viewBox="0 0 488.91979 209.153125" xmlns="http://www.w3.org/2000/svg" version="1.1">
 <metadata>
  <rdf:RDF xmlns:dc="http://purl.org/dc/elements/1.1/" xmlns:cc="http://creativecommons.org/ns#" xmlns:rdf="http://www.w3.org/1999/02/22-rdf-syntax-ns#">
   <cc:Work>
    <dc:type rdf:resource="http://purl.org/dc/dcmitype/StillImage"/>
    <dc:date>2026-07-16T15:32:52.184522</dc:date>
    <dc:format>image/svg+xml</dc:format>
    <dc:creator>
     <cc:Agent>
      <dc:title>Matplotlib v3.10.9, https://matplotlib.org/</dc:title>
     </cc:Agent>
    </dc:creator>
   </cc:Work>
  </rdf:RDF>
 </metadata>
 <defs>
  <style type="text/css">*{stroke-linejoin: round; stroke-linecap: butt}</style>
 </defs>
 <g id="figure_1">
  <g id="patch_1">
   <path d="M 0 209.153125 
L 488.91979 209.153125 
L 488.91979 0 
L 0 0 
z
" style="fill: #ffffff"/>
  </g>
  <g id="axes_1">
   <g id="patch_2">
    <path d="M 43.94479 175.660781 
L 240.764222 175.660781 
L 240.764222 25.207656 
L 43.94479 25.207656 
z
" style="fill: #ffffff"/>
   </g>
   <g id="matplotlib.axis_1">
    <g id="xtick_1">
     <g id="line2d_1">
      <defs>
       <path id="m93651dea93" d="M 0 0 
L 0 3 
" style="stroke: #666666; stroke-width: 0.8"/>
      </defs>
      <g>
       <use xlink:href="#m93651dea93" x="52.891128" y="175.660781" style="fill: #666666; stroke: #666666; stroke-width: 0.8"/>
      </g>
     </g>
     <g id="text_1">
      <text style="font-size: 7px; font-family: 'Arial', 'Helvetica', 'DejaVu Sans', sans-serif; fill: #444444" transform="translate(38.719471 194.280365) rotate(-30)">franc</text>
     </g>
    </g>
    <g id="xtick_2">
     <g id="line2d_2">
      <g>
       <use xlink:href="#m93651dea93" x="124.46183" y="175.660781" style="fill: #666666; stroke: #666666; stroke-width: 0.8"/>
      </g>
     </g>
     <g id="text_2">
      <text style="font-size: 7px; font-family: 'Arial', 'Helvetica', 'DejaVu Sans', sans-serif; fill: #444444" transform="translate(111.968639 193.311303) rotate(-30)">theo</text>
     </g>
    </g>
    <g id="xtick_3">
     <g id="line2d_3">
      <g>
       <use xlink:href="#m93651dea93" x="231.817884" y="175.660781" style="fill: #666666; stroke: #666666; stroke-width: 0.8"/>
      </g>
     </g>
     <g id="text_3">
      <text style="font-size: 7px; font-family: 'Arial', 'Helvetica', 'DejaVu Sans', sans-serif; fill: #444444" transform="translate(215.959236 195.254349) rotate(-30)">mean</text>
     </g>
    </g>
   </g>
   <g id="matplotlib.axis_2">
    <g id="ytick_1">
     <g id="line2d_4">
      <defs>
       <path id="m0aa282a1c0" d="M 0 0 
L -3 0 
" style="stroke: #666666; stroke-width: 0.8"/>
      </defs>
      <g>
       <use xlink:href="#m0aa282a1c0" x="43.94479" y="168.045971" style="fill: #666666; stroke: #666666; stroke-width: 0.8"/>
      </g>
     </g>
     <g id="text_4">
      <text style="font-size: 7px; font-family: 'Arial', 'Helvetica', 'DejaVu Sans', sans-serif; text-anchor: end; fill: #444444" x="37.44479" y="170.551205" transform="rotate(-0 37.44479 170.551205)">−12</text>
     </g>
    </g>
    <g id="ytick_2">
     <g id="line2d_5">
      <g>
       <use xlink:href="#m0aa282a1c0" x="43.94479" y="149.231411" style="fill: #666666; stroke: #666666; stroke-width: 0.8"/>
      </g>
     </g>
     <g id="text_5">
      <text style="font-size: 7px; font-family: 'Arial', 'Helvetica', 'DejaVu Sans', sans-serif; text-anchor: end; fill: #444444" x="37.44479" y="151.736646" transform="rotate(-0 37.44479 151.736646)">−10</text>
     </g>
    </g>
    <g id="ytick_3">
     <g id="line2d_6">
      <g>
       <use xlink:href="#m0aa282a1c0" x="43.94479" y="130.416852" style="fill: #666666; stroke: #666666; stroke-width: 0.8"/>
      </g>
     </g>
     <g id="text_6">
      <text style="font-size: 7px; font-family: 'Arial', 'Helvetica', 'DejaVu Sans', sans-serif; text-anchor: end; fill: #444444" x="37.44479" y="132.922086" transform="rotate(-0 37.44479 132.922086)">−8</text>
     </g>
    </g>
    <g id="ytick_4">
     <g id="line2d_7">
      <g>
       <use xlink:href="#m0aa282a1c0" x="43.94479" y="111.602292" style="fill: #666666; stroke: #666666; stroke-width: 0.8"/>
      </g>
     </g>
     <g id="text_7">
      <text style="font-size: 7px; font-family: 'Arial', 'Helvetica', 'DejaVu Sans', sans-serif; text-anchor: end; fill: #444444" x="37.44479" y="114.107526" transform="rotate(-0 37.44479 114.107526)">−6</text>
     </g>
    </g>
    <g id="ytick_5">
     <g id="line2d_8">
      <g>
       <use xlink:href="#m0aa282a1c0" x="43.94479" y="92.787733" style="fill: #666666; stroke: #666666; stroke-width: 0.8"/>
      </g>
     </g>
     <g id="text_8">
      <text style="font-size: 7px; font-family: 'Arial', 'Helvetica', 'DejaVu Sans', sans-serif; text-anchor: end; fill: #444444" x="37.44479" y="95.292967" transform="rotate(-0 37.44479 95.292967)">−4</text>
     </g>
    </g>
    <g id="ytick_6">
     <g id="line2d_9">
      <g>
       <use xlink:href="#m0aa282a1c0" x="43.94479" y="73.973173" style="fill: #666666; stroke: #666666; stroke-width: 0.8"/>
      </g>
     </g>
     <g id="text_9">
      <text style="font-size: 7px; font-family: 'Arial', 'Helvetica', 'DejaVu Sans', sans-serif; text-anchor: end; fill: #444444" x="37.44479" y="76.478407" transform="rotate(-0 37.44479 76.478407)">−2</text>
     </g>
    </g>
    <g id="ytick_7">
     <g id="line2d_10">
      <g>
       <use xlink:href="#m0aa282a1c0" x="43.94479" y="55.158613" style="fill: #666666; stroke: #666666; stroke-width: 0.8"/>
      </g>
     </g>
     <g id="text_10">
      <text style="font-size: 7px; font-family: 'Arial', 'Helvetica', 'DejaVu Sans', sans-serif; text-anchor: end; fill: #444444" x="37.44479" y="57.663848" transform="rotate(-0 37.44479 57.663848)">0</text>
     </g>
    </g>
    <g id="ytick_8">
     <g id="line2d_11">
      <g>
       <use xlink:href="#m0aa282a1c0" x="43.94479" y="36.344054" style="fill: #666666; stroke: #666666; stroke-width: 0.8"/>
      </g>
     </g>
     <g id="text_11">
      <text style="font-size: 7px; font-family: 'Arial', 'Helvetica', 'DejaVu Sans', sans-serif; text-anchor: end; fill: #444444" x="37.44479" y="38.849288" transform="rotate(-0 37.44479 38.849288)">2</text>
     </g>
    </g>
    <g id="text_12">
     <!-- $\Delta_{coll}$ (cm) -->
     <g style="fill: #333333" transform="translate(19.37104 121.434219) rotate(-90)">
      <text>
       <tspan x="0" y="-0.703125" style="font-size: 10px; font-family: 'DejaVu Sans'; fill: #333333">Δ</tspan>
       <tspan x="6.936523" y="0.9375" style="font-style: oblique; font-size: 7px; font-family: 'DejaVu Sans'; fill: #333333">c</tspan>
       <tspan x="10.785156" y="0.9375" style="font-style: oblique; font-size: 7px; font-family: 'DejaVu Sans'; fill: #333333">o</tspan>
       <tspan x="15.067871" y="0.9375" style="font-style: oblique; font-size: 7px; font-family: 'DejaVu Sans'; fill: #333333">l</tspan>
       <tspan x="17.012695" y="0.9375" style="font-style: oblique; font-size: 7px; font-family: 'DejaVu Sans'; fill: #333333">l</tspan>
       <tspan x="19.230957" y="-0.703125" style="font-size: 10px; font-family: 'Arial'; fill: #333333"> </tspan>
       <tspan x="22.009277" y="-0.703125" style="font-size: 10px; font-family: 'Arial'; fill: #333333">(</tspan>
       <tspan x="25.339355" y="-0.703125" style="font-size: 10px; font-family: 'Arial'; fill: #333333">c</tspan>
       <tspan x="30.339355" y="-0.703125" style="font-size: 10px; font-family: 'Arial'; fill: #333333">m</tspan>
       <tspan x="38.669434" y="-0.703125" style="font-size: 10px; font-family: 'Arial'; fill: #333333">)</tspan>
      </text>
     </g>
    </g>
   </g>
   <g id="line2d_12">
    <path d="M 43.94479 55.158613 
L 240.764222 55.158613 
" clip-path="url(#p19926beea9)" style="fill: none; stroke-dasharray: 2.96,1.28; stroke-dashoffset: 0; stroke: #808080; stroke-width: 0.8"/>
   </g>
   <g id="patch_3">
    <path d="M 43.94479 175.660781 
L 43.94479 25.207656 
" style="fill: none; stroke: #b0b0b0; stroke-width: 0.8; stroke-linejoin: miter; stroke-linecap: square"/>
   </g>
   <g id="patch_4">
    <path d="M 43.94479 175.660781 
L 240.764222 175.660781 
" style="fill: none; stroke: #b0b0b0; stroke-width: 0.8; stroke-linejoin: miter; stroke-linecap: square"/>
   </g>
   <g id="PathCollection_1">
    <defs>
     <path id="mebeb16653c" d="M 0 3.162278 
C 0.838646 3.162278 1.643056 2.82908 2.236068 2.236068 
C 2.82908 1.643056 3.162278 0.838646 3.162278 0 
C 3.162278 -0.838646 2.82908 -1.643056 2.236068 -2.236068 
C 1.643056 -2.82908 0.838646 -3.162278 0 -3.162278 
C -0.838646 -3.162278 -1.643056 -2.82908 -2.236068 -2.236068 
C -2.82908 -1.643056 -3.162278 -0.838646 -3.162278 0 
C -3.162278 0.838646 -2.82908 1.643056 -2.236068 2.236068 
C -1.643056 2.82908 -0.838646 3.162278 0 3.162278 
z
" style="stroke: #222222; stroke-width: 0.6"/>
    </defs>
    <g clip-path="url(#p19926beea9)">
     <use xlink:href="#mebeb16653c" x="52.891128" y="32.046435" style="fill: #c9c9c9; stroke: #222222; stroke-width: 0.6"/>
     <use xlink:href="#mebeb16653c" x="124.46183" y="168.822003" style="fill: #c9c9c9; stroke: #222222; stroke-width: 0.6"/>
    </g>
   </g>
   <g id="text_13">
    <text style="font-size: 6px; font-family: 'Arial', 'Helvetica', 'DejaVu Sans', sans-serif; text-anchor: start" x="52.891128" y="33.597528" transform="rotate(-0 52.891128 33.597528)"> franc</text>
   </g>
   <g id="text_14">
    <text style="font-size: 6px; font-family: 'Arial', 'Helvetica', 'DejaVu Sans', sans-serif; text-anchor: start" x="124.46183" y="170.373097" transform="rotate(-0 124.46183 170.373097)"> theo</text>
   </g>
   <g id="LineCollection_1">
    <path d="M 231.817884 168.822003 
L 231.817884 32.046435 
" clip-path="url(#p19926beea9)" style="fill: none; stroke: #222222; stroke-width: 1.8"/>
   </g>
   <g id="line2d_13">
    <defs>
     <path id="m80dd0d43bd" d="M 4 0 
L -4 -0 
" style="stroke: #222222"/>
    </defs>
    <g clip-path="url(#p19926beea9)">
     <use xlink:href="#m80dd0d43bd" x="231.817884" y="168.822003" style="fill: #222222; stroke: #222222"/>
    </g>
   </g>
   <g id="line2d_14">
    <g clip-path="url(#p19926beea9)">
     <use xlink:href="#m80dd0d43bd" x="231.817884" y="32.046435" style="fill: #222222; stroke: #222222"/>
    </g>
   </g>
   <g id="text_15">
    <text style="font-weight: 700; font-size: 10px; font-family: 'Arial', 'Helvetica', 'DejaVu Sans', sans-serif; text-anchor: end" x="14.421875" y="20.329219" transform="rotate(-0 14.421875 20.329219)">A</text>
   </g>
   <g id="text_16">
    <text style="font-size: 11px; font-family: 'Arial', 'Helvetica', 'DejaVu Sans', sans-serif; text-anchor: start; fill: #222222" x="43.94479" y="15.207656" transform="rotate(-0 43.94479 15.207656)">Speed-induced boundary shift</text>
   </g>
   <g id="line2d_15">
    <defs>
     <path id="mde8d94b212" d="M 0 3 
C 0.795609 3 1.55874 2.683901 2.12132 2.12132 
C 2.683901 1.55874 3 0.795609 3 0 
C 3 -0.795609 2.683901 -1.55874 2.12132 -2.12132 
C 1.55874 -2.683901 0.795609 -3 0 -3 
C -0.795609 -3 -1.55874 -2.683901 -2.12132 -2.12132 
C -2.683901 -1.55874 -3 -0.795609 -3 0 
C -3 0.795609 -2.683901 1.55874 -2.12132 2.12132 
C -1.55874 2.683901 -0.795609 3 0 3 
z
" style="stroke: #222222"/>
    </defs>
    <g clip-path="url(#p19926beea9)">
     <use xlink:href="#mde8d94b212" x="231.817884" y="100.434219" style="fill: #222222; stroke: #222222"/>
    </g>
   </g>
   <g id="legend_1">
    <g id="LineCollection_2">
     <path d="M 61.04479 104.112969 
L 61.04479 95.112969 
" style="fill: none; stroke: #222222; stroke-width: 1.8"/>
    </g>
    <g id="line2d_16">
     <g>
      <use xlink:href="#m80dd0d43bd" x="61.04479" y="104.112969" style="fill: #222222; stroke: #222222"/>
     </g>
    </g>
    <g id="line2d_17">
     <g>
      <use xlink:href="#m80dd0d43bd" x="61.04479" y="95.112969" style="fill: #222222; stroke: #222222"/>
     </g>
    </g>
    <g id="line2d_18"/>
    <g id="line2d_19">
     <g>
      <use xlink:href="#mde8d94b212" x="61.04479" y="99.612969" style="fill: #222222; stroke: #222222"/>
     </g>
    </g>
    <g id="text_17">
     <text style="font-size: 9px; font-family: 'Arial', 'Helvetica', 'DejaVu Sans', sans-serif; text-anchor: start" x="77.24479" y="102.762969" transform="rotate(-0 77.24479 102.762969)">mean (95% CI)</text>
    </g>
   </g>
  </g>
  <g id="axes_2">
   <g id="patch_5">
    <path d="M 284.900358 175.660781 
L 481.71979 175.660781 
L 481.71979 25.207656 
L 284.900358 25.207656 
z
" style="fill: #ffffff"/>
   </g>
   <g id="matplotlib.axis_3">
    <g id="xtick_4">
     <g id="line2d_20">
      <g>
       <use xlink:href="#m93651dea93" x="295.844092" y="175.660781" style="fill: #666666; stroke: #666666; stroke-width: 0.8"/>
      </g>
     </g>
     <g id="text_18">
      <text style="font-size: 7px; font-family: 'Arial', 'Helvetica', 'DejaVu Sans', sans-serif; text-anchor: middle; fill: #444444" x="295.844092" y="187.17125" transform="rotate(-0 295.844092 187.17125)">−20</text>
     </g>
    </g>
    <g id="xtick_5">
     <g id="line2d_21">
      <g>
       <use xlink:href="#m93651dea93" x="335.792017" y="175.660781" style="fill: #666666; stroke: #666666; stroke-width: 0.8"/>
      </g>
     </g>
     <g id="text_19">
      <text style="font-size: 7px; font-family: 'Arial', 'Helvetica', 'DejaVu Sans', sans-serif; text-anchor: middle; fill: #444444" x="335.792017" y="187.17125" transform="rotate(-0 335.792017 187.17125)">0</text>
     </g>
    </g>
    <g id="xtick_6">
     <g id="line2d_22">
      <g>
       <use xlink:href="#m93651dea93" x="375.739942" y="175.660781" style="fill: #666666; stroke: #666666; stroke-width: 0.8"/>
      </g>
     </g>
     <g id="text_20">
      <text style="font-size: 7px; font-family: 'Arial', 'Helvetica', 'DejaVu Sans', sans-serif; text-anchor: middle; fill: #444444" x="375.739942" y="187.17125" transform="rotate(-0 375.739942 187.17125)">20</text>
     </g>
    </g>
    <g id="xtick_7">
     <g id="line2d_23">
      <g>
       <use xlink:href="#m93651dea93" x="415.687867" y="175.660781" style="fill: #666666; stroke: #666666; stroke-width: 0.8"/>
      </g>
     </g>
     <g id="text_21">
      <text style="font-size: 7px; font-family: 'Arial', 'Helvetica', 'DejaVu Sans', sans-serif; text-anchor: middle; fill: #444444" x="415.687867" y="187.17125" transform="rotate(-0 415.687867 187.17125)">40</text>
     </g>
    </g>
    <g id="xtick_8">
     <g id="line2d_24">
      <g>
       <use xlink:href="#m93651dea93" x="455.635792" y="175.660781" style="fill: #666666; stroke: #666666; stroke-width: 0.8"/>
      </g>
     </g>
     <g id="text_22">
      <text style="font-size: 7px; font-family: 'Arial', 'Helvetica', 'DejaVu Sans', sans-serif; text-anchor: middle; fill: #444444" x="455.635792" y="187.17125" transform="rotate(-0 455.635792 187.17125)">60</text>
     </g>
    </g>
    <g id="text_23">
     <text style="font-size: 10px; font-family: 'Arial', 'Helvetica', 'DejaVu Sans', sans-serif; text-anchor: middle; fill: #333333" x="383.310074" y="199.848437" transform="rotate(-0 383.310074 199.848437)">Offset from shoulder edge (cm)</text>
    </g>
   </g>
   <g id="matplotlib.axis_4">
    <g id="ytick_9">
     <g id="line2d_25">
      <g>
       <use xlink:href="#m0aa282a1c0" x="284.900358" y="172.767452" style="fill: #666666; stroke: #666666; stroke-width: 0.8"/>
      </g>
     </g>
     <g id="text_24">
      <text style="font-size: 7px; font-family: 'Arial', 'Helvetica', 'DejaVu Sans', sans-serif; text-anchor: end; fill: #444444" x="278.400358" y="175.272686" transform="rotate(-0 278.400358 175.272686)">0.0</text>
     </g>
    </g>
    <g id="ytick_10">
     <g id="line2d_26">
      <g>
       <use xlink:href="#m0aa282a1c0" x="284.900358" y="143.834159" style="fill: #666666; stroke: #666666; stroke-width: 0.8"/>
      </g>
     </g>
     <g id="text_25">
      <text style="font-size: 7px; font-family: 'Arial', 'Helvetica', 'DejaVu Sans', sans-serif; text-anchor: end; fill: #444444" x="278.400358" y="146.339393" transform="rotate(-0 278.400358 146.339393)">0.2</text>
     </g>
    </g>
    <g id="ytick_11">
     <g id="line2d_27">
      <g>
       <use xlink:href="#m0aa282a1c0" x="284.900358" y="114.900865" style="fill: #666666; stroke: #666666; stroke-width: 0.8"/>
      </g>
     </g>
     <g id="text_26">
      <text style="font-size: 7px; font-family: 'Arial', 'Helvetica', 'DejaVu Sans', sans-serif; text-anchor: end; fill: #444444" x="278.400358" y="117.4061" transform="rotate(-0 278.400358 117.4061)">0.4</text>
     </g>
    </g>
    <g id="ytick_12">
     <g id="line2d_28">
      <g>
       <use xlink:href="#m0aa282a1c0" x="284.900358" y="85.967572" style="fill: #666666; stroke: #666666; stroke-width: 0.8"/>
      </g>
     </g>
     <g id="text_27">
      <text style="font-size: 7px; font-family: 'Arial', 'Helvetica', 'DejaVu Sans', sans-serif; text-anchor: end; fill: #444444" x="278.400358" y="88.472806" transform="rotate(-0 278.400358 88.472806)">0.6</text>
     </g>
    </g>
    <g id="ytick_13">
     <g id="line2d_29">
      <g>
       <use xlink:href="#m0aa282a1c0" x="284.900358" y="57.034279" style="fill: #666666; stroke: #666666; stroke-width: 0.8"/>
      </g>
     </g>
     <g id="text_28">
      <text style="font-size: 7px; font-family: 'Arial', 'Helvetica', 'DejaVu Sans', sans-serif; text-anchor: end; fill: #444444" x="278.400358" y="59.539513" transform="rotate(-0 278.400358 59.539513)">0.8</text>
     </g>
    </g>
    <g id="ytick_14">
     <g id="line2d_30">
      <g>
       <use xlink:href="#m0aa282a1c0" x="284.900358" y="28.100986" style="fill: #666666; stroke: #666666; stroke-width: 0.8"/>
      </g>
     </g>
     <g id="text_29">
      <text style="font-size: 7px; font-family: 'Arial', 'Helvetica', 'DejaVu Sans', sans-serif; text-anchor: end; fill: #444444" x="278.400358" y="30.60622" transform="rotate(-0 278.400358 30.60622)">1.0</text>
     </g>
    </g>
    <g id="text_30">
     <text style="font-size: 10px; font-family: 'Arial', 'Helvetica', 'DejaVu Sans', sans-serif; text-anchor: middle; fill: #333333" x="262.56567" y="100.434219" transform="rotate(-90 262.56567 100.434219)">P(respond HIT)</text>
    </g>
   </g>
   <g id="line2d_31">
    <path d="M 338.060009 172.767452 
L 338.060009 100.434219 
" clip-path="url(#p68cca2903f)" style="fill: none; stroke-dasharray: 1,1.65; stroke-dashoffset: 0; stroke: #505050"/>
   </g>
   <g id="line2d_32">
    <path d="M 329.398696 172.767452 
L 329.398696 100.434219 
" clip-path="url(#p68cca2903f)" style="fill: none; stroke-dasharray: 1,1.65; stroke-dashoffset: 0; stroke: #c94148"/>
   </g>
   <g id="line2d_33">
    <path d="M 293.846696 53.307825 
L 298.342343 56.772062 
L 302.83799 60.582942 
L 307.333637 64.740357 
L 311.829284 69.23478 
L 316.324931 74.046038 
L 321.719708 80.192587 
L 327.114485 86.67355 
L 334.30752 95.665352 
L 349.59272 114.913716 
L 355.886626 122.406295 
L 361.281403 128.446415 
L 365.77705 133.155847 
L 370.272697 137.54054 
L 374.768344 141.583949 
L 379.263991 145.279817 
L 383.759639 148.630817 
L 388.255286 151.64693 
L 392.750933 154.343761 
L 397.24658 156.740909 
L 401.742227 158.860517 
L 406.237874 160.726035 
L 410.733521 162.361222 
L 415.229169 163.789388 
L 420.623945 165.261237 
L 426.018722 166.502933 
L 432.312628 167.703942 
L 438.606534 168.681496 
L 445.799569 169.575063 
L 453.891734 170.352956 
L 462.883028 170.999849 
L 472.773452 171.514905 
L 472.773452 171.514905 
" clip-path="url(#p68cca2903f)" style="fill: none; stroke: #595959; stroke-width: 1.8; stroke-linecap: round"/>
   </g>
   <g id="line2d_34">
    <path d="M 293.846696 60.291386 
L 298.342343 64.423566 
L 302.83799 68.893803 
L 307.333637 73.682737 
L 312.728414 79.806139 
L 318.12319 86.269233 
L 325.316226 95.247375 
L 341.500555 115.607631 
L 346.895332 122.024409 
L 352.290109 128.088631 
L 356.785756 132.820946 
L 361.281403 137.23017 
L 365.77705 141.29896 
L 370.272697 145.020347 
L 374.768344 148.3964 
L 379.263991 151.436622 
L 383.759639 154.156261 
L 388.255286 156.574676 
L 392.750933 158.713868 
L 397.24658 160.597227 
L 401.742227 162.248518 
L 406.237874 163.691106 
L 411.632651 165.178166 
L 417.027427 166.43297 
L 423.321333 167.646895 
L 429.615239 168.635136 
L 436.808275 169.538609 
L 444.90044 170.325232 
L 453.891734 170.979459 
L 464.681287 171.539531 
L 472.773452 171.841872 
L 472.773452 171.841872 
" clip-path="url(#p68cca2903f)" style="fill: none; stroke: #df4850; stroke-width: 1.8; stroke-linecap: round"/>
   </g>
   <g id="line2d_35">
    <path d="M 284.900358 100.434219 
L 481.71979 100.434219 
" clip-path="url(#p68cca2903f)" style="fill: none; stroke-dasharray: 2.96,1.28; stroke-dashoffset: 0; stroke: #808080; stroke-width: 0.8"/>
   </g>
   <g id="patch_6">
    <path d="M 284.900358 175.660781 
L 284.900358 25.207656 
" style="fill: none; stroke: #b0b0b0; stroke-width: 0.8; stroke-linejoin: miter; stroke-linecap: square"/>
   </g>
   <g id="patch_7">
    <path d="M 284.900358 175.660781 
L 481.71979 175.660781 
" style="fill: none; stroke: #b0b0b0; stroke-width: 0.8; stroke-linejoin: miter; stroke-linecap: square"/>
   </g>
   <g id="PathCollection_2">
    <path d="M 305.029618 64.305984 
C 305.67923 64.305984 306.302324 64.04789 306.761669 63.588545 
C 307.221014 63.1292 307.479108 62.506107 307.479108 61.856494 
C 307.479108 61.206882 307.221014 60.583789 306.761669 60.124444 
C 306.302324 59.665098 305.67923 59.407005 305.029618 59.407005 
C 304.380006 59.407005 303.756912 59.665098 303.297567 60.124444 
C 302.838222 60.583789 302.580128 61.206882 302.580128 61.856494 
C 302.580128 62.506107 302.838222 63.1292 303.297567 63.588545 
C 303.756912 64.04789 304.380006 64.305984 305.029618 64.305984 
z
" clip-path="url(#p68cca2903f)" style="fill: #505050; fill-opacity: 0.55"/>
    <path d="M 349.761307 174.316645 
C 350.172158 174.316645 350.566237 174.153412 350.856752 173.862897 
C 351.147268 173.572382 351.3105 173.178303 351.3105 172.767452 
C 351.3105 172.356601 351.147268 171.962522 350.856752 171.672007 
C 350.566237 171.381491 350.172158 171.218259 349.761307 171.218259 
C 349.350456 171.218259 348.956377 171.381491 348.665862 171.672007 
C 348.375347 171.962522 348.212114 172.356601 348.212114 172.767452 
C 348.212114 173.178303 348.375347 173.572382 348.665862 173.862897 
C 348.956377 174.153412 349.350456 174.316645 349.761307 174.316645 
z
" clip-path="url(#p68cca2903f)" style="fill: #505050; fill-opacity: 0.55"/>
    <path d="M 372.127152 129.766586 
C 372.838766 129.766586 373.521331 129.483859 374.024518 128.980671 
C 374.527706 128.477484 374.810433 127.794919 374.810433 127.083305 
C 374.810433 126.37169 374.527706 125.689126 374.024518 125.185938 
C 373.521331 124.682751 372.838766 124.400023 372.127152 124.400023 
C 371.415537 124.400023 370.732973 124.682751 370.229785 125.185938 
C 369.726598 125.689126 369.44387 126.37169 369.44387 127.083305 
C 369.44387 127.794919 369.726598 128.477484 370.229785 128.980671 
C 370.732973 129.483859 371.415537 129.766586 372.127152 129.766586 
z
" clip-path="url(#p68cca2903f)" style="fill: #505050; fill-opacity: 0.55"/>
    <path d="M 394.492996 155.886256 
C 395.247777 155.886256 395.971746 155.586379 396.505457 155.052668 
C 397.039168 154.518957 397.339046 153.794988 397.339046 153.040207 
C 397.339046 152.285425 397.039168 151.561456 396.505457 151.027745 
C 395.971746 150.494034 395.247777 150.194157 394.492996 150.194157 
C 393.738215 150.194157 393.014246 150.494034 392.480535 151.027745 
C 391.946824 151.561456 391.646946 152.285425 391.646946 153.040207 
C 391.646946 153.794988 391.946824 154.518957 392.480535 155.052668 
C 393.014246 155.586379 393.738215 155.886256 394.492996 155.886256 
z
" clip-path="url(#p68cca2903f)" style="fill: #505050; fill-opacity: 0.55"/>
    <path d="M 416.858841 174.779913 
C 417.392552 174.779913 417.904475 174.567867 418.281866 174.190477 
C 418.659256 173.813086 418.871302 173.301163 418.871302 172.767452 
C 418.871302 172.233741 418.659256 171.721818 418.281866 171.344427 
C 417.904475 170.967036 417.392552 170.754991 416.858841 170.754991 
C 416.32513 170.754991 415.813206 170.967036 415.435816 171.344427 
C 415.058425 171.721818 414.846379 172.233741 414.846379 172.767452 
C 414.846379 173.301163 415.058425 173.813086 415.435816 174.190477 
C 415.813206 174.567867 416.32513 174.779913 416.858841 174.779913 
z
" clip-path="url(#p68cca2903f)" style="fill: #505050; fill-opacity: 0.55"/>
    <path d="M 439.224685 165.059513 
C 439.738249 165.059513 440.230847 164.855472 440.593992 164.492327 
C 440.957136 164.129183 441.161177 163.636584 441.161177 163.123021 
C 441.161177 162.609457 440.957136 162.116859 440.593992 161.753714 
C 440.230847 161.39057 439.738249 161.186529 439.224685 161.186529 
C 438.711122 161.186529 438.218523 161.39057 437.855379 161.753714 
C 437.492234 162.116859 437.288194 162.609457 437.288194 163.123021 
C 437.288194 163.636584 437.492234 164.129183 437.855379 164.492327 
C 438.218523 164.855472 438.711122 165.059513 439.224685 165.059513 
z
" clip-path="url(#p68cca2903f)" style="fill: #505050; fill-opacity: 0.55"/>
    <path d="M 461.59053 174.624869 
C 462.083123 174.624869 462.555606 174.42916 462.903922 174.080844 
C 463.252238 173.732529 463.447947 173.260045 463.447947 172.767452 
C 463.447947 172.274859 463.252238 171.802375 462.903922 171.454059 
C 462.555606 171.105744 462.083123 170.910034 461.59053 170.910034 
C 461.097937 170.910034 460.625453 171.105744 460.277137 171.454059 
C 459.928821 171.802375 459.733112 172.274859 459.733112 172.767452 
C 459.733112 173.260045 459.928821 173.732529 460.277137 174.080844 
C 460.625453 174.42916 461.097937 174.624869 461.59053 174.624869 
z
" clip-path="url(#p68cca2903f)" style="fill: #505050; fill-opacity: 0.55"/>
   </g>
   <g id="PathCollection_3">
    <path d="M 305.029618 54.661553 
C 305.67923 54.661553 306.302324 54.403459 306.761669 53.944114 
C 307.221014 53.484769 307.479108 52.861676 307.479108 52.212063 
C 307.479108 51.562451 307.221014 50.939358 306.761669 50.480012 
C 306.302324 50.020667 305.67923 49.762574 305.029618 49.762574 
C 304.380006 49.762574 303.756912 50.020667 303.297567 50.480012 
C 302.838222 50.939358 302.580128 51.562451 302.580128 52.212063 
C 302.580128 52.861676 302.838222 53.484769 303.297567 53.944114 
C 303.756912 54.403459 304.380006 54.661553 305.029618 54.661553 
z
" clip-path="url(#p68cca2903f)" style="fill: #c94148; fill-opacity: 0.55"/>
    <path d="M 327.395463 29.385509 
C 327.736122 29.385509 328.062875 29.250163 328.303758 29.009281 
C 328.54464 28.768398 328.679986 28.441645 328.679986 28.100986 
C 328.679986 27.760326 328.54464 27.433573 328.303758 27.19269 
C 328.062875 26.951808 327.736122 26.816462 327.395463 26.816462 
C 327.054803 26.816462 326.72805 26.951808 326.487167 27.19269 
C 326.246285 27.433573 326.110939 27.760326 326.110939 28.100986 
C 326.110939 28.441645 326.246285 28.768398 326.487167 29.009281 
C 326.72805 29.250163 327.054803 29.385509 327.395463 29.385509 
z
" clip-path="url(#p68cca2903f)" style="fill: #c94148; fill-opacity: 0.55"/>
    <path d="M 349.761307 141.2403 
C 350.2539 141.2403 350.726384 141.044591 351.0747 140.696275 
C 351.423015 140.34796 351.618725 139.875476 351.618725 139.382883 
C 351.618725 138.89029 351.423015 138.417806 351.0747 138.06949 
C 350.726384 137.721174 350.2539 137.525465 349.761307 137.525465 
C 349.268714 137.525465 348.79623 137.721174 348.447915 138.06949 
C 348.099599 138.417806 347.90389 138.89029 347.90389 139.382883 
C 347.90389 139.875476 348.099599 140.34796 348.447915 140.696275 
C 348.79623 141.044591 349.268714 141.2403 349.761307 141.2403 
z
" clip-path="url(#p68cca2903f)" style="fill: #c94148; fill-opacity: 0.55"/>
    <path d="M 372.127152 165.226981 
C 372.867824 165.226981 373.578259 164.932709 374.101993 164.408975 
C 374.625728 163.885241 374.92 163.174805 374.92 162.434133 
C 374.92 161.693461 374.625728 160.983025 374.101993 160.459291 
C 373.578259 159.935557 372.867824 159.641285 372.127152 159.641285 
C 371.38648 159.641285 370.676044 159.935557 370.15231 160.459291 
C 369.628576 160.983025 369.334304 161.693461 369.334304 162.434133 
C 369.334304 163.174805 369.628576 163.885241 370.15231 164.408975 
C 370.676044 164.932709 371.38648 165.226981 372.127152 165.226981 
z
" clip-path="url(#p68cca2903f)" style="fill: #c94148; fill-opacity: 0.55"/>
    <path d="M 394.492996 164.029697 
C 395.204611 164.029697 395.887175 163.746969 396.390363 163.243782 
C 396.89355 162.740594 397.176278 162.05803 397.176278 161.346415 
C 397.176278 160.634801 396.89355 159.952236 396.390363 159.449049 
C 395.887175 158.945861 395.204611 158.663134 394.492996 158.663134 
C 393.781382 158.663134 393.098817 158.945861 392.59563 159.449049 
C 392.092442 159.952236 391.809715 160.634801 391.809715 161.346415 
C 391.809715 162.05803 392.092442 162.740594 392.59563 163.243782 
C 393.098817 163.746969 393.781382 164.029697 394.492996 164.029697 
z
" clip-path="url(#p68cca2903f)" style="fill: #c94148; fill-opacity: 0.55"/>
    <path d="M 416.858841 174.742294 
C 417.382575 174.742294 417.884929 174.534212 418.255265 174.163876 
C 418.625601 173.79354 418.833682 173.291186 418.833682 172.767452 
C 418.833682 172.243718 418.625601 171.741364 418.255265 171.371028 
C 417.884929 171.000692 417.382575 170.79261 416.858841 170.79261 
C 416.335106 170.79261 415.832753 171.000692 415.462417 171.371028 
C 415.092081 171.741364 414.883999 172.243718 414.883999 172.767452 
C 414.883999 173.291186 415.092081 173.79354 415.462417 174.163876 
C 415.832753 174.534212 416.335106 174.742294 416.858841 174.742294 
z
" clip-path="url(#p68cca2903f)" style="fill: #c94148; fill-opacity: 0.55"/>
    <path d="M 439.224685 174.41062 
C 439.660458 174.41062 440.078442 174.237485 440.38658 173.929347 
C 440.694718 173.621209 440.867853 173.203225 440.867853 172.767452 
C 440.867853 172.331679 440.694718 171.913695 440.38658 171.605557 
C 440.078442 171.297419 439.660458 171.124284 439.224685 171.124284 
C 438.788912 171.124284 438.370928 171.297419 438.06279 171.605557 
C 437.754652 171.913695 437.581518 172.331679 437.581518 172.767452 
C 437.581518 173.203225 437.754652 173.621209 438.06279 173.929347 
C 438.370928 174.237485 438.788912 174.41062 439.224685 174.41062 
z
" clip-path="url(#p68cca2903f)" style="fill: #c94148; fill-opacity: 0.55"/>
    <path d="M 461.59053 141.2403 
C 462.083123 141.2403 462.555606 141.044591 462.903922 140.696275 
C 463.252238 140.34796 463.447947 139.875476 463.447947 139.382883 
C 463.447947 138.89029 463.252238 138.417806 462.903922 138.06949 
C 462.555606 137.721174 462.083123 137.525465 461.59053 137.525465 
C 461.097937 137.525465 460.625453 137.721174 460.277137 138.06949 
C 459.928821 138.417806 459.733112 138.89029 459.733112 139.382883 
C 459.733112 139.875476 459.928821 140.34796 460.277137 140.696275 
C 460.625453 141.044591 461.097937 141.2403 461.59053 141.2403 
z
" clip-path="url(#p68cca2903f)" style="fill: #c94148; fill-opacity: 0.55"/>
   </g>
   <g id="patch_8">
    <path d="M 335.053387 100.434219 
Q 333.729271 100.434219 332.405155 100.434219 
" style="fill: none; stroke: #222222; stroke-width: 0.9; stroke-linecap: round"/>
    <path d="M 331.053387 98.434219 
L 335.053387 100.434219 
L 331.053387 102.434219 
" style="fill: none; stroke: #222222; stroke-width: 0.9; stroke-linecap: round"/>
    <path d="M 336.405155 102.434219 
L 332.405155 100.434219 
L 336.405155 98.434219 
" style="fill: none; stroke: #222222; stroke-width: 0.9; stroke-linecap: round"/>
   </g>
   <g id="text_31">
    <!-- $\Delta_{coll}$ = -4.3 cm -->
    <g style="fill: #222222" transform="translate(311.329353 93.924228)">
     <text>
      <tspan x="0" y="-0.890625" style="font-size: 7px; font-family: 'DejaVu Sans'; fill: #222222">Δ</tspan>
      <tspan x="4.855566" y="0.257812" style="font-style: oblique; font-size: 4.9px; font-family: 'DejaVu Sans'; fill: #222222">c</tspan>
      <tspan x="7.549609" y="0.257812" style="font-style: oblique; font-size: 4.9px; font-family: 'DejaVu Sans'; fill: #222222">o</tspan>
      <tspan x="10.54751" y="0.257812" style="font-style: oblique; font-size: 4.9px; font-family: 'DejaVu Sans'; fill: #222222">l</tspan>
      <tspan x="11.908887" y="0.257812" style="font-style: oblique; font-size: 4.9px; font-family: 'DejaVu Sans'; fill: #222222">l</tspan>
      <tspan x="13.46167" y="-0.890625" style="font-size: 7px; font-family: 'Arial'; fill: #222222"> </tspan>
      <tspan x="15.406494" y="-0.890625" style="font-size: 7px; font-family: 'Arial'; fill: #222222">=</tspan>
      <tspan x="19.494385" y="-0.890625" style="font-size: 7px; font-family: 'Arial'; fill: #222222"> </tspan>
      <tspan x="21.439209" y="-0.890625" style="font-size: 7px; font-family: 'Arial'; fill: #222222">-</tspan>
      <tspan x="23.770264" y="-0.890625" style="font-size: 7px; font-family: 'Arial'; fill: #222222">4</tspan>
      <tspan x="27.66333" y="-0.890625" style="font-size: 7px; font-family: 'Arial'; fill: #222222">.</tspan>
      <tspan x="29.608154" y="-0.890625" style="font-size: 7px; font-family: 'Arial'; fill: #222222">3</tspan>
      <tspan x="33.501221" y="-0.890625" style="font-size: 7px; font-family: 'Arial'; fill: #222222"> </tspan>
      <tspan x="35.446045" y="-0.890625" style="font-size: 7px; font-family: 'Arial'; fill: #222222">c</tspan>
      <tspan x="38.946045" y="-0.890625" style="font-size: 7px; font-family: 'Arial'; fill: #222222">m</tspan>
     </text>
    </g>
   </g>
   <g id="text_32">
    <text style="font-weight: 700; font-size: 10px; font-family: 'Arial', 'Helvetica', 'DejaVu Sans', sans-serif; text-anchor: end" x="255.377443" y="20.329219" transform="rotate(-0 255.377443 20.329219)">B</text>
   </g>
   <g id="text_33">
    <text style="font-size: 11px; font-family: 'Arial', 'Helvetica', 'DejaVu Sans', sans-serif; text-anchor: start; fill: #222222" x="284.900358" y="15.207656" transform="rotate(-0 284.900358 15.207656)">Collision psychometric</text>
   </g>
   <g id="legend_2">
    <g id="line2d_36">
     <path d="M 430.415571 36.599687 
L 439.415571 36.599687 
L 448.415571 36.599687 
" style="fill: none; stroke: #595959; stroke-width: 1.8; stroke-linecap: round"/>
    </g>
    <g id="text_34">
     <text style="font-size: 9px; font-family: 'Arial', 'Helvetica', 'DejaVu Sans', sans-serif; text-anchor: start" x="455.615571" y="39.749687" transform="rotate(-0 455.615571 39.749687)">slow</text>
    </g>
    <g id="line2d_37">
     <path d="M 430.415571 49.330469 
L 439.415571 49.330469 
L 448.415571 49.330469 
" style="fill: none; stroke: #df4850; stroke-width: 1.8; stroke-linecap: round"/>
    </g>
    <g id="text_35">
     <text style="font-size: 9px; font-family: 'Arial', 'Helvetica', 'DejaVu Sans', sans-serif; text-anchor: start" x="455.615571" y="52.480469" transform="rotate(-0 455.615571 52.480469)">fast</text>
    </g>
   </g>
  </g>
 </g>
 <defs>
  <clipPath id="p19926beea9">
   <rect x="43.94479" y="25.207656" width="196.819432" height="150.453125"/>
  </clipPath>
  <clipPath id="p68cca2903f">
   <rect x="284.900358" y="25.207656" width="196.819432" height="150.453125"/>
  </clipPath>
 </defs>
</svg>
